<?xml version="1.0" encoding="iso-8859-1"?>
<!-- Generator: Adobe Illustrator 19.0.0, SVG Export Plug-In . SVG Version: 6.00 Build 0)  -->
<svg version="1.1" id="Layer_1" xmlns="http://www.w3.org/2000/svg" xmlns:xlink="http://www.w3.org/1999/xlink" x="0px" y="0px"
	 viewBox="0 0 512 512" style="enable-background:new 0 0 512 512;" xml:space="preserve">
<rect x="74.399" y="10.199" style="fill:#E8E8E8;" width="245.627" height="452.671"/>
<g>
	<rect x="115.812" y="50.2" style="fill:#F07057;" width="58.35" height="58.35"/>
	<rect x="220.272" y="50.2" style="fill:#F07057;" width="58.35" height="58.35"/>
	<rect x="115.812" y="153.722" style="fill:#F07057;" width="58.35" height="58.35"/>
	<rect x="220.272" y="153.722" style="fill:#F07057;" width="58.35" height="58.35"/>
	<rect x="115.812" y="257.244" style="fill:#F07057;" width="58.35" height="58.35"/>
	<rect x="220.272" y="257.244" style="fill:#F07057;" width="58.35" height="58.35"/>
</g>
<rect x="149.214" y="365.468" style="fill:#84B3D2;" width="95.995" height="97.402"/>
<circle style="fill:#F07057;" cx="336.727" cy="403.695" r="59.166"/>
<path d="M115.808,118.744h58.349c5.633,0,10.199-4.566,10.199-10.199V50.196c0-5.633-4.566-10.199-10.199-10.199h-58.349
	c-5.633,0-10.199,4.566-10.199,10.199v58.349C105.609,114.178,110.175,118.744,115.808,118.744z M126.007,60.396h37.95v37.95h-37.95
	C126.007,98.346,126.007,60.396,126.007,60.396z"/>
<path d="M220.27,118.744h58.349c5.633,0,10.199-4.566,10.199-10.199V50.196c0-5.633-4.566-10.199-10.199-10.199H220.27
	c-5.633,0-10.199,4.566-10.199,10.199v58.349C210.071,114.178,214.637,118.744,220.27,118.744z M230.469,60.396h37.95v37.95h-37.95
	V60.396z"/>
<path d="M115.808,222.265h58.349c5.633,0,10.199-4.566,10.199-10.199v-58.349c0-5.633-4.566-10.199-10.199-10.199h-58.349
	c-5.633,0-10.199,4.566-10.199,10.199v58.349C105.609,217.699,110.175,222.265,115.808,222.265z M126.007,163.916h37.95v37.95
	h-37.95C126.007,201.867,126.007,163.916,126.007,163.916z"/>
<path d="M220.27,222.265h58.349c5.633,0,10.199-4.566,10.199-10.199v-58.349c0-5.633-4.566-10.199-10.199-10.199H220.27
	c-5.633,0-10.199,4.566-10.199,10.199v58.349C210.071,217.699,214.637,222.265,220.27,222.265z M230.469,163.916h37.95v37.95h-37.95
	V163.916z"/>
<path d="M174.156,325.787c5.633,0,10.199-4.566,10.199-10.199V257.24c0-5.633-4.566-10.199-10.199-10.199h-58.349
	c-5.633,0-10.199,4.566-10.199,10.199v58.348c0,5.633,4.566,10.199,10.199,10.199H174.156z M126.007,267.438h37.95v37.949h-37.95
	C126.007,305.388,126.007,267.438,126.007,267.438z"/>
<path d="M220.27,325.787h58.349c5.633,0,10.199-4.566,10.199-10.199V257.24c0-5.633-4.566-10.199-10.199-10.199H220.27
	c-5.633,0-10.199,4.566-10.199,10.199v58.348C210.071,321.221,214.637,325.787,220.27,325.787z M230.469,267.438h37.95v37.949
	h-37.95V267.438z"/>
<path d="M197.213,385.382c-5.633,0-10.199,4.566-10.199,10.199v0.941c0,5.633,4.566,10.199,10.199,10.199
	s10.199-4.566,10.199-10.199v-0.941C207.412,389.949,202.846,385.382,197.213,385.382z"/>
<path d="M338.614,473.071c0.437,0,0.864-0.037,1.287-0.09c14.933-0.675,28.64-6.1,39.669-14.789l50.82,50.821
	c1.992,1.992,4.602,2.987,7.212,2.987s5.221-0.996,7.212-2.987c3.983-3.983,3.983-10.441,0-14.424l-51.227-51.228
	c7.874-11.251,12.511-24.924,12.511-39.668c0-38.249-31.118-69.367-69.367-69.367c-2.194,0-4.361,0.114-6.504,0.315V10.199
	C330.227,4.566,325.661,0,320.028,0H74.399C68.766,0,64.2,4.566,64.2,10.199v452.672c0,5.633,4.566,10.199,10.199,10.199H338.614z
	 M84.598,20.398h225.23v319.361c-24.926,10.528-42.463,35.221-42.463,63.935c0,19.1,7.761,36.421,20.293,48.978h-32.25v-87.205
	c0-5.633-4.566-10.199-10.199-10.199h-95.993c-5.633,0-10.199,4.566-10.199,10.199v87.205H84.598V20.398z M207.412,452.672v-27.916
	c0-5.633-4.566-10.199-10.199-10.199s-10.199,4.566-10.199,10.199v27.916h-27.598v-77.006h75.594v77.006H207.412z M336.731,452.662
	c-27.001,0-48.968-21.967-48.968-48.968s21.967-48.968,48.968-48.968s48.968,21.967,48.968,48.968S363.732,452.662,336.731,452.662z
	"/>
<g>
</g>
<g>
</g>
<g>
</g>
<g>
</g>
<g>
</g>
<g>
</g>
<g>
</g>
<g>
</g>
<g>
</g>
<g>
</g>
<g>
</g>
<g>
</g>
<g>
</g>
<g>
</g>
<g>
</g>
</svg>
