<?xml version="1.0" encoding="iso-8859-1"?>
<!-- Generator: Adobe Illustrator 19.0.0, SVG Export Plug-In . SVG Version: 6.00 Build 0)  -->
<svg version="1.1" id="Layer_1" xmlns="http://www.w3.org/2000/svg" xmlns:xlink="http://www.w3.org/1999/xlink" x="0px" y="0px"
	 viewBox="0 0 392.533 392.533" style="enable-background:new 0 0 392.533 392.533;" xml:space="preserve">
<path style="fill:#FFC10D;" d="M288,21.786c-45.576,0-82.747,37.107-82.747,82.747S242.36,187.281,288,187.281
	c45.576,0,82.747-37.107,82.747-82.747S333.576,21.786,288,21.786z"/>
<path style="fill:#FFFFFF;" d="M108.154,128.129c-19.135,0-34.78,15.58-34.78,34.78c0,19.135,15.58,34.78,34.78,34.78
	s34.78-15.58,34.78-34.78S127.354,128.129,108.154,128.129z"/>
<path style="fill:#194F82;" d="M108.154,106.343c-31.224,0-56.566,25.341-56.566,56.566s25.341,56.566,56.566,56.566
	s56.566-25.341,56.566-56.566S139.378,106.343,108.154,106.343z M108.154,197.689c-19.135,0-34.78-15.58-34.78-34.78
	c0-19.135,15.58-34.78,34.78-34.78s34.78,15.58,34.78,34.78C142.933,182.044,127.354,197.689,108.154,197.689z"/>
<path style="fill:#56ACE0;" d="M194.586,301.576c0-10.602-6.4-20.04-15.903-23.596l0,0c-8.857-3.297-18.166-5.948-27.539-7.952
	L117.98,336.42c-4.008,8.016-15.515,8.016-19.523,0l-33.164-66.392c-9.374,2.004-18.618,4.719-27.539,7.952
	c-8.663,3.168-14.675,11.313-15.774,20.622h36.913c6.012,0,10.925,4.848,10.925,10.925c0,6.012-4.848,10.925-10.925,10.925H21.786
	v11.184h16.549c6.012,0,10.925,4.848,10.925,10.925c0,6.012-4.848,10.925-10.925,10.925H21.786v17.131h172.8V301.576z"/>
<g>
	<path style="fill:#194F82;" d="M186.117,257.616c-12.671-4.655-25.859-8.21-39.24-10.602l0,0c-4.719-0.84-9.503,1.552-11.572,5.883
		l-27.022,54.238l-27.087-54.238c-2.133-4.331-6.853-6.723-11.572-5.883l0,0c-13.382,2.327-26.57,5.883-39.24,10.602
		C12.154,264.275,0,281.988,0,301.576v80.032c0,6.012,4.848,10.925,10.925,10.925h194.586c6.012,0,10.925-4.848,10.925-10.925
		v-80.032C216.372,281.988,204.218,264.275,186.117,257.616z M21.786,353.487h16.549c6.012,0,10.925-4.848,10.925-10.925
		c0-6.012-4.848-10.925-10.925-10.925H21.786v-11.184h37.172c6.012,0,10.925-4.848,10.925-10.925
		c0-6.012-4.848-10.925-10.925-10.925H22.044c1.099-9.374,7.111-17.455,15.774-20.622c8.857-3.297,18.166-5.947,27.539-7.952
		l33.164,66.392c4.008,8.016,15.515,8.016,19.523,0l33.164-66.392c9.374,2.004,18.618,4.719,27.539,7.952l0,0
		c9.568,3.556,15.903,12.994,15.903,23.596v69.107H21.786V353.487z"/>
	<path style="fill:#194F82;" d="M288,139.313c-6.012,0-10.925,4.848-10.925,10.925v4.396c0,6.012,4.849,10.925,10.925,10.925
		s10.925-4.848,10.925-10.925v-4.396C298.861,144.162,294.012,139.313,288,139.313z"/>
	<path style="fill:#194F82;" d="M288,0c-57.665,0-104.533,46.933-104.533,104.533S230.4,209.067,288,209.067
		s104.533-46.933,104.533-104.533S345.665,0,288,0z M288,187.281c-45.576,0-82.747-37.107-82.747-82.747S242.36,21.786,288,21.786
		c45.576,0,82.747,37.107,82.747,82.747S333.576,187.281,288,187.281z"/>
	<path style="fill:#194F82;" d="M296.081,44.412c-35.362-5.172-46.287,23.855-46.287,37.301c0,6.012,4.848,10.925,10.925,10.925
		c6.077,0,10.731-4.848,10.925-10.925c0.323-8.986,9.503-19.653,20.04-15.968c5.883,2.069,11.055,6.271,12.347,12.347
		c1.875,8.986-3.168,15.709-9.051,18.489c-10.796,5.107-17.842,16.097-17.842,27.798c0,6.012,4.848,10.925,10.925,10.925
		c6.077,0,10.925-4.848,10.925-10.925c0-3.491,2.069-6.594,5.301-8.145c16.097-7.564,24.76-25.083,21.075-42.667
		C322.327,59.281,308.558,46.287,296.081,44.412z"/>
</g>
<g>
</g>
<g>
</g>
<g>
</g>
<g>
</g>
<g>
</g>
<g>
</g>
<g>
</g>
<g>
</g>
<g>
</g>
<g>
</g>
<g>
</g>
<g>
</g>
<g>
</g>
<g>
</g>
<g>
</g>
</svg>
