<?xml version="1.0" encoding="UTF-8"?>
<svg width="699px" height="677px" viewBox="0 0 699 677" version="1.1" xmlns="http://www.w3.org/2000/svg" xmlns:xlink="http://www.w3.org/1999/xlink">
    <!-- Generator: Sketch 51.3 (57544) - http://www.bohemiancoding.com/sketch -->
    <title>Solutions_05</title>
    <desc>Created with Sketch.</desc>
    <defs></defs>
    <g id="UI-Design" stroke="none" stroke-width="1" fill="none" fill-rule="evenodd">
        <g id="Illustrations" transform="translate(-1754.000000, -665.000000)">
            <g id="Solutions_05" transform="translate(1753.000000, 664.000000)">
                <g id="Group" transform="translate(79.468599, 246.859903)">
                    <path d="M5.95338164,105.894444 C5.95338164,105.894444 7.25362319,65.2014493 36.4777778,61.5695652 C65.7070048,57.9342995 150.160145,50.7736715 150.160145,50.7736715 C150.160145,50.7736715 151.935507,50.0280193 156.756039,47.694686 C180.469807,29.8074879 220.300483,0.967149758 251.092029,1.12101449 C259.8843,1.16328502 404.37343,1.88188406 454.507971,2.1321256 C465.100966,2.18454106 471.482126,2.21497585 471.482126,2.21497585 L506.235266,2.31304348 C506.235266,2.31304348 504.887681,7.76425121 502.618599,10.9497585 C501.418116,12.6236715 496.949275,16.3028986 492.972464,19.4224638 C503.869807,34.3828502 520.652899,65.3485507 520.652899,65.3485507 C520.652899,65.3485507 522.666667,74.2929952 522.626087,82.8806763 C522.582126,91.4751208 522.418116,124.464734 522.418116,124.464734 L477.383092,124.234783 C472.266667,124.212802 467.420773,122.014734 463.986715,118.213768 C456.738164,110.178986 441.564734,96.7352657 420.363527,95.4299517 C389.927053,93.563285 356.107246,121.1 361.757971,160.71087 L142.515942,159.618599 C142.515942,159.618599 144.548309,96.8096618 87.85,95.8391304 C87.85,95.8391304 61.2297101,91.9485507 43.1649758,113.063527 C41.4758454,115.038406 39.0359903,116.215217 36.4338164,116.201691 L5.90434783,116.051208 L5.95338164,105.894444 Z" id="Shape" fill="#FFC713"></path>
                    <path d="M39.4772947,115.271739 C57.4743961,90.6195652 87.8516908,95.6176329 87.8516908,95.6176329 C144.548309,96.5847826 142.517633,159.400483 142.517633,159.400483 L142.53285,159.400483 L142.53285,159.408937 L38.1297101,148.988406 C34.9864734,148.973188 32.3403382,146.62971 31.9362319,143.52029 L26.9516908,115.936232 L39.4772947,115.271739 Z" id="Shape" fill="#927400"></path>
                    <path d="M361.757971,160.678744 C356.107246,121.066184 389.927053,93.5311594 420.363527,95.4028986 C441.828502,96.7200483 457.110145,110.485024 464.257246,118.4843 C467.498551,122.112802 472.119565,124.178986 476.985749,124.207729 L482.915459,124.233092 L483.957005,161.270531 L361.757971,160.678744 Z" id="Shape" fill="#927400"></path>
                    <path d="M8.40169082,90.8917874 C10.6775362,82.457971 15.0719807,72.4635266 23.4871981,66.5152174 L52.2057971,66.6572464 C55.4826087,66.6758454 58.2183575,69.3 58.2099034,72.57343 C58.2099034,72.592029 58.2099034,72.6157005 58.2099034,72.6342995 C58.1591787,82.8147343 53.3792271,91.113285 47.5847826,91.0845411 L8.40169082,90.8917874 Z" id="Shape" fill="#E55B57"></path>
                    <path d="M477.398309,117.53913 C472.351208,117.508696 468.438647,121.948792 469.10314,126.958696 L472.824638,155.117633 C472.800966,158.534783 475.557005,161.316184 478.974155,161.334783 L528.075604,161.546135 C531.492754,161.564734 534.274155,158.807005 534.292754,155.389855 L534.446618,127.225845 C534.477053,122.018116 530.275362,117.774155 525.069324,117.745411 L477.398309,117.53913 Z" id="Shape" fill="#213659"></path>
                    <path d="M522.477295,113.327295 L512.46256,113.273188 C508.61087,113.249517 505.504831,110.116425 505.52343,106.263043 L505.60628,87.37657 C505.624879,83.5164251 508.764734,80.405314 512.621498,80.4272947 L522.626087,80.4797101 L522.477295,113.327295 Z" id="Shape" fill="#E55B57"></path>
                    <path d="M298.071498,51.355314 C301.324638,51.3570048 303.969082,48.7311594 303.98599,45.4746377 L304.128019,16.9285024 C304.141546,13.6533816 301.488647,10.9937198 298.215217,10.9937198 C271.82657,11.0004831 258.173188,11.0123188 255.308937,10.9971014 C226.6343,10.8550725 206.104348,27.2492754 188.161353,40.5357488 C183.589372,43.9173913 185.980193,51.1727053 191.668116,51.1794686 L298.071498,51.355314 Z M408.92343,48.8427536 L409.099275,13.6618357 C409.106039,12.1671498 407.898792,10.9514493 406.402415,10.9514493 L319.34372,10.9869565 C317.86087,10.9886473 316.662077,12.1874396 316.648551,13.6719807 L316.476087,48.6770531 C316.467633,50.1683575 317.673188,51.3874396 319.169565,51.3874396 L406.221498,51.526087 C407.711111,51.5277778 408.918357,50.3289855 408.92343,48.8427536 Z M494.534783,51.6698068 C497.145411,51.6714976 498.711111,48.7785024 497.273913,46.597343 C490.522464,36.3492754 474.57971,13.9272947 462.622222,11.0038647 C462.395652,10.9514493 462.172464,10.9277778 461.942512,10.9294686 L424.299758,10.9480676 C422.815217,10.9497585 421.611353,12.1451691 421.601208,13.631401 L421.428744,48.8478261 C421.423671,50.3374396 422.630918,51.5565217 424.120531,51.5565217 L494.534783,51.6698068 Z" id="Shape" fill="#83C0E8"></path>
                    <path d="M116.910145,184.402657 C134.293478,167.183333 134.433816,139.141063 117.221256,121.754348 C100.008696,104.365942 71.9630435,104.227295 54.5729469,121.439855 C37.1896135,138.657488 37.052657,166.701449 54.2618357,184.088164 C71.476087,201.469807 99.5251208,201.613527 116.910145,184.402657 Z" id="Shape" fill="#213659"></path>
                    <path d="M79.2792271,161.581643 C74.9169082,157.177053 74.9541063,150.077295 79.355314,145.714976 C83.7649758,141.352657 90.8664251,141.386473 95.2270531,145.794444 C99.5927536,150.193961 99.5538647,157.300483 95.1509662,161.661111 C90.744686,166.02343 83.6381643,165.986232 79.2792271,161.581643 Z" id="Shape" fill="#E2C69C"></path>
                    <path d="M450.448309,184.402657 C467.82657,167.183333 467.973671,139.141063 450.757729,121.754348 C433.545169,104.365942 405.499517,104.227295 388.117874,121.439855 C370.726087,138.657488 370.590821,166.701449 387.801691,184.088164 C405.015942,201.469807 433.063285,201.613527 450.448309,184.402657 Z" id="Shape" fill="#213659"></path>
                    <path d="M412.810628,161.581643 C408.451691,157.177053 408.49058,150.077295 412.893478,145.714976 C417.296377,141.352657 424.40628,141.386473 428.765217,145.794444 C433.124155,150.193961 433.090338,157.300483 428.68744,161.661111 C424.284541,166.02343 417.176329,165.986232 412.810628,161.581643 Z" id="Shape" fill="#E2C69C"></path>
                    <path d="M197.180193,20.0024155 C202.198551,17.15 207.742754,14.1809179 214.024155,11.0478261 C214.027536,11.0461353 214.027536,11.0444444 214.032609,11.0444444 C214.03599,11.0444444 216.350725,13.157971 216.168116,13.631401 C215.99058,14.1014493 157.711353,52.0925121 157.711353,52.0925121 L150.160145,50.7736715 C150.160145,50.7736715 151.935507,50.0280193 156.756039,47.694686 C167.644928,39.484058 181.932367,28.9654589 197.180193,20.0024155 Z" id="Shape" fill="#83C0E8"></path>
                    <path d="M13.9171498,150.968357 L27.8376812,150.968357 C34.9864734,150.968357 40.7775362,145.173913 40.7775362,138.028502 L40.7775362,116.815459 C40.7775362,112.855556 37.5683575,109.646377 33.6084541,109.646377 L13.9171498,109.646377 C6.77342995,109.646377 0.978985507,115.444203 0.978985507,122.587923 L0.978985507,138.028502 C0.978985507,145.173913 6.77342995,150.968357 13.9171498,150.968357 Z" id="Shape" fill="#213659"></path>
                    <path d="M364.618841,132.573913 C361.507729,140.935024 360.286957,150.407005 361.757971,160.71087 L142.515942,159.618599 C142.515942,159.618599 142.911594,146.748068 138.109662,132.575604 L364.618841,132.575604 L364.618841,132.573913 Z" id="Shape" fill="#213659"></path>
                </g>
                <g id="Group" transform="translate(0.000000, 82.850242)" fill-rule="nonzero">
                    <g transform="translate(43.961353, 0.000000)" id="Shape">
                        <path d="M62.1698068,92.8057971 L69.07343,103.287198 L83.394686,96.0082126 L78.9968599,84.255314 C82.3751208,81.3961353 85.2072464,78.0483092 87.4442029,74.3775362 L99.7398551,76.9070048 L104.721014,61.6338164 L93.2961353,56.4294686 C93.6512077,52.1432367 93.3350242,47.7690821 92.2934783,43.4693237 L102.773188,36.5673913 L95.4942029,22.2444444 L83.7413043,26.6439614 C80.8821256,23.2657005 77.5359903,20.4301932 73.8635266,18.1932367 L76.394686,5.89927536 L61.1198068,0.919806763 L55.9171498,12.3429952 C51.6292271,11.9845411 47.2584541,12.3024155 42.9570048,13.3456522 L36.0550725,2.86594203 L21.7321256,10.1449275 L26.1316425,21.8978261 C22.7533816,24.755314 19.9178744,28.1031401 17.6809179,31.7772947 L5.3852657,29.2444444 L0.405797101,44.5193237 L11.8306763,49.7219807 C11.4722222,54.0099034 11.7884058,58.3823671 12.8299517,62.6821256 L2.35024155,69.584058 L9.63091787,83.9070048 L21.3804348,79.5091787 C24.2413043,82.8874396 27.5874396,85.721256 31.2599034,87.9599034 L28.728744,100.255556 L44.005314,105.235024 L49.207971,93.8101449 C53.4975845,94.1669082 57.8717391,93.8490338 62.1698068,92.8057971 Z M35.5072464,61.1519324 C31.4898551,53.2456522 37.7458937,38.1161836 45.6521739,34.0987923 C53.5567633,30.0797101 66.7147343,36.0550725 70.7321256,43.9613527 C74.7512077,51.865942 70.1842995,67.5618357 62.2780193,71.5775362 C54.3717391,75.5932367 39.5246377,69.0565217 35.5072464,61.1519324 Z" fill="#213659"></path>
                        <path d="M82.6743961,50.7330918 C81.3792271,34.1055556 66.85,21.6729469 50.2224638,22.9664251 C33.5932367,24.2599034 21.160628,38.7891304 22.4541063,55.4166667 C23.7475845,72.0458937 38.2785024,84.4785024 54.9077295,83.1850242 C71.5335749,81.8915459 83.9678744,67.360628 82.6743961,50.7330918 Z M38.2480676,60.3521739 C34.2306763,52.4458937 37.3823671,42.7777778 45.2903382,38.7603865 C53.1949275,34.7413043 62.8613527,37.8929952 66.8804348,45.8009662 C70.8995169,53.7055556 67.7495169,63.3753623 59.8415459,67.3927536 C51.9335749,71.4101449 42.2654589,68.2584541 38.2480676,60.3521739 Z" fill="#83C0E8"></path>
                    </g>
                    <g transform="translate(0.000000, 82.850242)" id="Shape">
                        <path d="M45.4070048,76.981401 L49.1166667,86.6275362 L61.9195652,83.2949275 L60.4519324,73.0654589 C63.6729469,71.3611111 66.5422705,69.1664251 68.9888889,66.6048309 L78.4371981,70.8065217 L85.1311594,59.3934783 L76.8562802,53.1949275 C77.8961353,49.8115942 78.4135266,46.2371981 78.3323671,42.5917874 L87.9785024,38.8855072 L84.6458937,26.0809179 L74.4130435,27.5502415 C72.7086957,24.3292271 70.5157005,21.4582126 67.9524155,19.013285 L72.1557971,9.56666667 L60.7427536,2.86932367 L54.5458937,11.1458937 C51.1591787,10.102657 47.5847826,9.58695652 43.9410628,9.67149758 L40.2347826,0.0219806763 L27.4301932,3.35797101 L28.8995169,13.5874396 C25.6785024,15.2934783 22.8091787,17.4864734 20.3608696,20.0463768 L10.915942,15.8463768 L4.22198068,27.2594203 L12.4968599,33.4562802 C11.4536232,36.8429952 10.9396135,40.4173913 11.0207729,44.0611111 L1.37294686,47.7673913 L4.70724638,60.5719807 L14.936715,59.1043478 C16.6444444,62.3236715 18.8357488,65.194686 21.397343,67.6413043 L17.1956522,77.0879227 L28.6086957,83.7835749 L34.8072464,75.5070048 C38.1888889,76.5468599 41.7649758,77.0625604 45.4070048,76.981401 Z M29.589372,47.060628 C27.7480676,39.994686 34.0751208,29.4557971 41.1427536,27.6161836 C48.2103865,25.77657 58.4618357,32.1019324 60.3048309,39.1695652 C62.1461353,46.2388889 54.9736715,57.0567633 47.9060386,58.8963768 C40.836715,60.739372 31.4289855,54.1316425 29.589372,47.060628 Z" fill="#213659"></path>
                        <path d="M69.3118357,46.7410628 C71.1987923,33.1350242 61.6997585,20.573913 48.092029,18.6869565 C34.4859903,16.8 21.9248792,26.3007246 20.0379227,39.9067633 C18.1543478,53.5128019 27.65,66.073913 41.2577295,67.9608696 C54.8637681,69.8478261 67.4248792,60.3471014 69.3118357,46.7410628 Z M31.8770531,46.6565217 C30.0357488,39.5905797 34.2746377,32.3640097 41.3422705,30.5243961 C48.4099034,28.6847826 55.6330918,32.9219807 57.476087,39.9896135 C59.3173913,47.0589372 55.0768116,54.2821256 48.0091787,56.1217391 C40.9398551,57.9647343 33.7166667,53.7258454 31.8770531,46.6565217 Z" fill="#83C0E8"></path>
                    </g>
                    <g transform="translate(82.850242, 101.449275)" id="Shape">
                        <path d="M42.92657,59.3816425 L47.8620773,65.6173913 L56.5072464,60.2355072 L53.0850242,53.0528986 C55.0599034,51.0628019 56.6661836,48.792029 57.8785024,46.3504831 L65.7847826,47.2736715 L68.089372,37.3519324 L60.5888889,34.6922705 C60.5770531,31.9666667 60.1374396,29.2207729 59.244686,26.5611111 L65.4821256,21.6272947 L60.0985507,12.9804348 L52.915942,16.4043478 C50.9258454,14.4294686 48.6567633,12.8214976 46.2118357,11.6125604 L47.1350242,3.70628019 L37.213285,1.4 L34.555314,8.90217391 C31.8280193,8.91231884 29.0821256,9.35193237 26.4241546,10.2480676 L21.4886473,4.00724638 L12.8434783,9.39251208 L16.2673913,16.5751208 C14.2925121,18.5669082 12.6845411,20.8359903 11.4722222,23.2792271 L3.56763285,22.3560386 L1.26304348,32.276087 L8.76521739,34.9357488 C8.7736715,37.6630435 9.21497585,40.4072464 10.1094203,43.0669082 L3.86859903,48.0007246 L9.25386473,56.6458937 L16.4364734,53.2236715 C18.4282609,55.1985507 20.697343,56.8065217 23.1405797,58.0171498 L22.2173913,65.9217391 L32.1391304,68.2280193 L34.7971014,60.7258454 C37.5210145,60.7157005 40.2669082,60.2743961 42.92657,59.3816425 Z M23.6714976,41.9881643 C20.6990338,37.2166667 22.8429952,26.3599034 27.6161836,23.3891304 C32.3876812,20.4166667 42.3956522,23.1253623 45.3698068,27.8985507 C48.3422705,32.6700483 47.3243961,42.9620773 42.5512077,45.9345411 C37.7797101,48.9070048 26.6422705,46.7630435 23.6714976,41.9881643 Z" fill="#213659"></path>
                        <path d="M53.5635266,31.6792271 C51.8338164,21.2485507 41.9746377,14.1944444 31.5422705,15.9258454 C21.1115942,17.6572464 14.0591787,27.5164251 15.7871981,37.9471014 C17.5202899,48.376087 27.3777778,55.4318841 37.8101449,53.7004831 C48.2408213,51.9707729 55.2932367,42.1115942 53.5635266,31.6792271 Z M26.0352657,40.1942029 C23.0628019,35.4227053 24.5202899,29.1413043 29.2951691,26.1705314 C34.0666667,23.1980676 40.3463768,24.6572464 43.3188406,29.4304348 C46.2913043,34.2019324 44.8304348,40.4833333 40.0572464,43.4541063 C35.2857488,46.4282609 29.0060386,44.9690821 26.0352657,40.1942029 Z" fill="#83C0E8"></path>
                    </g>
                </g>
                <g id="Group" transform="translate(289.130435, 539.371981)" fill-rule="nonzero">
                    <path d="M103.075845,44.1743961 L99.3188406,44.1743961 L99.3188406,35.1640097 L78.2342995,35.1640097 L78.2342995,44.1743961 L37.6900966,44.1743961 L37.6900966,35.1640097 L16.6038647,35.1640097 L16.6038647,44.1743961 L12.8502415,44.1743961 C6.4673913,44.1743961 1.27487923,49.3652174 1.27487923,55.7497585 L1.27487923,123.571981 C1.27487923,129.954831 6.4673913,135.149034 12.8502415,135.149034 L103.009903,135.149034 C109.392754,135.149034 114.585266,129.956522 114.585266,123.571981 L114.585266,55.7497585 C114.647826,49.3652174 109.455314,44.1743961 103.075845,44.1743961 Z M19.6710145,59.7536232 L19.6710145,57.62657 L17.5439614,57.62657 C15.9782609,57.62657 14.6644928,56.3753623 14.6644928,54.7504831 C14.6644928,53.1864734 15.9157005,51.8710145 17.5439614,51.8710145 L19.6710145,51.8710145 L19.6710145,49.7439614 C19.6710145,48.1782609 20.9222222,46.8661836 22.5487923,46.8661836 C24.1753623,46.8661836 25.4282609,48.1782609 25.4282609,49.7439614 L25.4282609,51.8710145 L27.555314,51.8710145 C29.1193237,51.8710145 30.4347826,53.1864734 30.4347826,54.7504831 C30.4347826,56.3128019 29.1835749,57.62657 27.555314,57.62657 L25.4282609,57.62657 L25.4282609,59.7536232 C25.4282609,61.3210145 24.1753623,62.631401 22.5487923,62.631401 C20.9222222,62.631401 19.6710145,61.3818841 19.6710145,59.7536232 Z M94.37657,109.370773 C93.8135266,109.871256 93.1253623,110.25 92.2495169,110.25 L23.6731884,110.25 C22.0466184,110.25 20.7328502,108.934541 20.7328502,107.307971 C20.7328502,106.494686 21.0456522,105.742271 21.6086957,105.243478 C22.1717391,104.742995 22.8599034,104.365942 23.7357488,104.365942 L92.3120773,104.365942 C93.9386473,104.365942 95.2507246,105.678019 95.2507246,107.30628 C95.2524155,108.057005 94.9413043,108.807729 94.37657,109.370773 Z M98.444686,57.62657 L88.4958937,57.62657 C86.9301932,57.62657 85.6181159,56.3753623 85.6181159,54.7504831 C85.6181159,53.1864734 86.8693237,51.8710145 88.4958937,51.8710145 L98.444686,51.8710145 C100.008696,51.8710145 101.320773,53.1864734 101.320773,54.7504831 C101.261594,56.3753623 100.007005,57.62657 98.444686,57.62657 Z" id="Shape" fill="#213659"></path>
                    <path d="M89.9990338,32.0985507 C88.4958937,32.9101449 86.6190821,32.3487923 85.8074879,30.9099034 L74.1678744,9.8236715 L60.6531401,35.1623188 C60.0900966,36.1649758 59.0874396,36.7888889 57.9630435,36.7888889 C56.8352657,36.7888889 55.7751208,36.1649758 55.2086957,35.1623188 L41.6956522,9.8236715 L30.0577295,30.9099034 C29.2444444,32.4130435 27.3676329,32.9743961 25.8661836,32.0985507 C24.3647343,31.2852657 23.8,29.4101449 24.6775362,27.9070048 L39.0072464,1.81594203 C39.5702899,0.814975845 40.571256,0.250241546 41.697343,0.250241546 C42.82343,0.250241546 43.8869565,0.875845411 44.3874396,1.87850242 L57.9038647,27.092029 L71.4169082,1.87850242 C71.9799517,0.875845411 72.9826087,0.250241546 74.1086957,0.250241546 C75.2347826,0.250241546 76.2966184,0.875845411 76.7987923,1.81594203 L91.1268116,27.9070048 C92.0635266,29.4118357 91.4987923,31.2852657 89.9990338,32.0985507 Z" id="Shape" fill="#83C0E8"></path>
                </g>
                <g id="Group" transform="translate(23.671498, 463.285024)" fill="#213659" fill-rule="nonzero">
                    <path d="M67.9355072,1.52173913 C30.5818841,1.52173913 0.267149758,31.831401 0.267149758,69.252657 C0.267149758,106.670531 30.5801932,136.985266 67.9355072,136.985266 C105.290821,136.985266 135.602174,106.670531 135.602174,69.252657 C135.602174,31.831401 105.290821,1.52173913 67.9355072,1.52173913 Z M67.9355072,127.335749 C35.860628,127.335749 9.85072464,101.327536 9.85072464,69.252657 C9.85072464,37.1777778 35.860628,11.1678744 67.9355072,11.1678744 C100.008696,11.1678744 126.018599,37.1777778 126.018599,69.252657 C126.018599,101.327536 100.008696,127.335749 67.9355072,127.335749 Z" id="Shape"></path>
                    <path d="M118.781884,79.2927536 L98.8995169,71.0770531 C98.1809179,70.8166667 97.7243961,70.0997585 97.7243961,69.3152174 L97.7243961,69.252657 C97.7243961,68.4714976 98.1809179,67.7512077 98.8995169,67.4925121 L118.781884,59.2818841 C119.887681,58.8236715 121.128744,59.4746377 121.323188,60.6514493 C121.191304,59.8669082 121.062802,59.1483092 120.9343,58.3671498 C119.564734,51.5210145 116.827295,45.197343 113.11087,39.5263285 C112.718599,38.8736715 112.263768,38.2869565 111.871498,37.7019324 C112.459903,38.6775362 112.067633,39.9845411 111.026087,40.3751208 L91.142029,48.5857488 C90.4251208,48.8444444 89.6422705,48.715942 89.1214976,48.1951691 C89.1214976,48.1951691 89.1214976,48.1951691 89.0555556,48.1951691 L88.9913043,48.1309179 C88.4705314,47.6067633 88.2743961,46.8272947 88.6007246,46.1103865 L96.8130435,26.2263285 L96.8130435,26.1637681 C97.2695652,25.1205314 98.5748792,24.72657 99.4862319,25.3149758 C98.9012077,24.8584541 98.3144928,24.4678744 97.6601449,24.0789855 C92.0533816,20.3591787 85.6654589,17.6876812 78.8210145,16.2555556 C78.1057971,16.0577295 77.3195652,15.9309179 76.536715,15.863285 C77.7084541,16.0577295 78.3661836,17.2987923 77.9062802,18.3403382 L77.9062802,18.4062802 L69.6280193,38.2886473 C69.365942,39.0072464 68.6490338,39.4637681 67.8678744,39.4637681 C67.0816425,39.4637681 66.3681159,39.0055556 66.1060386,38.2886473 L57.8954106,18.4062802 C57.4371981,17.2987923 58.0898551,16.0577295 59.263285,15.863285 C58.4804348,15.9934783 57.7652174,16.1236715 56.9823671,16.2555556 C50.1379227,17.6876812 43.7483092,20.3591787 38.1415459,24.0789855 C37.4888889,24.4678744 36.9038647,24.926087 36.3154589,25.3809179 C37.2944444,24.7282609 38.5980676,25.1222222 39.0528986,26.2280193 L41.6601449,32.5516908 L43.5521739,37.1118357 L47.268599,46.1103865 L47.268599,46.1746377 C47.5272947,46.8289855 47.3328502,47.6084541 46.8103865,48.1309179 L46.7461353,48.1951691 C46.2236715,48.7176329 45.5050725,48.9137681 44.7898551,48.6516908 L44.723913,48.6516908 L44.6596618,48.6516908 L24.7756039,40.4410628 C23.6664251,39.9845411 23.2775362,38.6149758 23.9285024,37.6376812 C23.4719807,38.2243961 23.0154589,38.8753623 22.6248792,39.5280193 C18.9101449,45.1330918 16.2369565,51.5227053 14.8014493,58.3688406 C14.605314,59.15 14.4768116,59.868599 14.4108696,60.6531401 C14.605314,59.4780193 15.8429952,58.8253623 16.9521739,59.2835749 L36.8345411,67.5618357 C37.5531401,67.8205314 38.0096618,68.5391304 38.0096618,69.318599 L38.0096618,69.3845411 C38.0096618,70.1673913 37.5531401,70.8842995 36.8345411,71.144686 L16.9521739,79.4263285 C15.8429952,79.8794686 14.605314,79.2285024 14.4108696,78.0533816 C14.5410628,78.8379227 14.671256,79.5548309 14.8014493,80.3359903 C16.1710145,87.1821256 18.9101449,93.5074879 22.6248792,99.1751208 C23.0154589,99.8277778 23.4719807,100.414493 23.8608696,101.001208 C23.2758454,100.025604 23.6664251,98.7219807 24.7096618,98.3297101 L44.592029,90.1173913 C45.3089372,89.8570048 46.0917874,89.9838164 46.6125604,90.5062802 C46.6801932,90.5062802 46.6801932,90.5705314 46.6801932,90.5705314 C47.2009662,91.094686 47.3971014,91.8758454 47.0707729,92.5927536 L38.8567633,112.476812 C38.3985507,113.5843 37.0966184,113.973188 36.1176329,113.320531 C36.7702899,113.778744 37.3570048,114.169324 38.0096618,114.624155 C43.6147343,118.34058 50.002657,121.010386 56.8487923,122.447585 C57.6299517,122.64372 58.3468599,122.773913 59.1297101,122.839855 C57.9562802,122.64372 57.305314,121.404348 57.7601449,120.295169 L65.9741546,100.412802 C66.3004831,99.6975845 66.9514493,99.2410628 67.7342995,99.2410628 L67.7985507,99.2410628 C68.5830918,99.2410628 69.2983092,99.6992754 69.5620773,100.412802 L77.7777778,120.295169 C78.2359903,121.404348 77.5833333,122.64372 76.4082126,122.839855 C77.1910628,122.709662 77.907971,122.579469 78.6908213,122.447585 C85.5352657,121.010386 91.92657,118.34058 97.5316425,114.624155 C98.1826087,114.236957 98.7693237,113.777053 99.3577295,113.320531 C98.378744,113.973188 97.0751208,113.5843 96.618599,112.476812 L88.3403382,92.5285024 C88.0782609,91.8099034 88.2084541,91.0270531 88.7292271,90.5062802 C88.7292271,90.5062802 88.7292271,90.5062802 88.7951691,90.442029 C88.7951691,90.442029 88.7951691,90.442029 88.8594203,90.442029 C89.3835749,89.9195652 90.1647343,89.72343 90.8799517,90.0514493 L110.760628,98.2671498 C111.871498,98.7236715 112.263768,100.025604 111.611111,101.001208 C112.067633,100.414493 112.458213,99.7635266 112.914734,99.1751208 C116.629469,93.5717391 119.302657,87.1821256 120.738164,80.3359903 C120.9343,79.6190821 120.995169,78.8379227 121.127053,78.0533816 C121.128744,79.0323671 119.825121,79.7458937 118.781884,79.2927536 Z M57.2427536,84.6391304 C55.9408213,85.9410628 53.852657,85.9410628 52.5490338,84.6391304 C51.2454106,83.3355072 51.2454106,81.2490338 52.5490338,79.9437198 C53.852657,78.6400966 55.9408213,78.6400966 57.2427536,79.9437198 C58.5480676,81.2490338 58.5480676,83.3355072 57.2427536,84.6391304 Z M57.2427536,58.5615942 C55.9408213,59.8652174 53.852657,59.8652174 52.5490338,58.5615942 C51.2454106,57.257971 51.2454106,55.1698068 52.5490338,53.8678744 C53.852657,52.5642512 55.9408213,52.5642512 57.2427536,53.8678744 C58.5480676,55.1698068 58.5480676,57.2562802 57.2427536,58.5615942 Z M67.5415459,77.9214976 C63.1758454,77.9214976 59.6555556,74.4028986 59.6555556,70.0338164 C59.6555556,65.6664251 63.1775362,62.1478261 67.5415459,62.1478261 C71.9089372,62.1478261 75.4326087,65.6664251 75.4326087,70.0338164 C75.4326087,74.4028986 71.910628,77.9214976 67.5415459,77.9214976 Z M83.3202899,84.6391304 C82.0166667,85.9410628 79.9301932,85.9410628 78.62657,84.6391304 C77.321256,83.3355072 77.321256,81.2490338 78.62657,79.9437198 C79.9301932,78.6400966 82.0166667,78.6400966 83.3202899,79.9437198 C84.623913,81.2490338 84.623913,83.3355072 83.3202899,84.6391304 Z M83.3202899,58.5615942 C82.0166667,59.8652174 79.9301932,59.8652174 78.62657,58.5615942 C77.321256,57.257971 77.321256,55.1698068 78.62657,53.8678744 C79.9301932,52.5642512 82.0166667,52.5642512 83.3202899,53.8678744 C84.623913,55.1714976 84.623913,57.2562802 83.3202899,58.5615942 Z" id="Shape"></path>
                </g>
                <g id="Group" transform="translate(552.898551, 466.666667)" fill="#213659" fill-rule="nonzero">
                    <path d="M24.6352657,126.647585 C32.6176329,132.665217 43.9664251,131.074155 49.984058,123.091787 C53.531401,118.391304 54.4207729,112.525845 52.9328502,107.2657 L96.1536232,46.9135266 L113.310386,45.386715 L125.367633,29.3983092 L123.271014,12.5847826 L108.626812,32.0072464 L100.583575,25.9388889 L92.5386473,19.873913 L107.186232,0.454830918 L90.4487923,3.06714976 L78.3898551,19.0538647 L81.6345411,35.9688406 L35.4886473,94.1144928 C30.023913,94.1297101 24.6268116,96.5949275 21.0828502,101.297101 C15.0618357,109.277778 16.6545894,120.62657 24.6352657,126.647585 Z M28.5900966,121.402657 L24.0874396,110.7843 L31.0333333,101.581159 L42.4785024,102.991304 L46.9811594,113.602899 L40.0352657,122.814493 L28.5900966,121.402657 Z" id="Shape"></path>
                    <path d="M137.901691,106.352657 L85.5758454,66.8922705 L70.4700483,87.0908213 L122.714734,126.488647 L124.696377,123.862802 C124.696377,123.862802 129.572705,125.822464 134.362802,119.476812 C139.144444,113.129469 135.921739,108.976812 135.921739,108.976812 L137.901691,106.352657 Z M120.998551,121.957246 L73.7214976,86.3045894 L76.1427536,83.0971014 L123.419807,118.749758 L120.998551,121.957246 Z M125.825845,115.56087 L78.5504831,79.9048309 L80.9717391,76.6956522 L128.247101,112.346618 L125.825845,115.56087 Z M130.651449,109.15942 L83.376087,73.5050725 L85.797343,70.2975845 L133.074396,105.948551 L130.651449,109.15942 Z" id="Shape"></path>
                    <polygon id="Shape" points="23.9369565 32.9591787 21.3990338 25.3978261 4.71570048 17.2429952 2.57004831 20.0903382 0.422705314 22.9309179 12.855314 36.7330918 20.8190821 37.0949275 56.5562802 64.0466184 59.6301932 59.8770531"></polygon>
                </g>
                <g id="Group" transform="translate(563.043478, 103.140097)" fill="#213659" fill-rule="nonzero">
                    <path d="M26.5205314,8.28333333 C26.5205314,9.16425121 25.805314,9.88115942 24.9227053,9.88115942 L6.55700483,9.88115942 C5.67439614,9.88115942 4.96086957,9.16594203 4.96086957,8.28333333 L4.96086957,2.69516908 C4.96086957,1.81086957 5.67439614,1.097343 6.55700483,1.097343 L24.9227053,1.097343 C25.805314,1.097343 26.5205314,1.81086957 26.5205314,2.69516908 L26.5205314,8.28333333 Z" id="Shape"></path>
                    <path d="M55.0785024,11.757971 L7.78115942,11.757971 C3.68429952,11.757971 0.36352657,14.6983092 0.36352657,18.3251208 L0.36352657,20.5333333 L6.74468599,26.9128019 L6.74468599,72.5497585 C6.74468599,72.5497585 3.05193237,74.2524155 0.36352657,78.3746377 L0.36352657,114.392512 C0.36352657,118.021014 3.68429952,120.963043 7.78115942,120.963043 L88.4384058,120.963043 C92.5318841,120.963043 95.8543478,118.021014 95.8543478,114.392512 L95.8543478,44.6545894 L55.0785024,11.757971 Z M50.1683575,32.7342995 C47.8519324,30.9454106 47.4275362,27.6178744 49.2181159,25.3014493 C51.0086957,22.986715 54.3328502,22.5623188 56.652657,24.3528986 L79.355314,41.9120773 C81.6717391,43.702657 82.0978261,47.0301932 80.3055556,49.3449275 C79.2640097,50.6942029 77.6949275,51.4009662 76.1140097,51.4009662 C74.9794686,51.4009662 73.8398551,51.0391304 72.8743961,50.2934783 L50.1683575,32.7342995 Z M84.1623188,98.0845411 C84.1623188,101.009662 81.7934783,103.383575 78.8649758,103.383575 C75.9364734,103.383575 73.565942,101.011353 73.565942,98.0845411 L73.565942,67.6801932 C73.565942,64.7550725 75.9347826,62.3828502 78.8649758,62.3828502 C81.7917874,62.3828502 84.1623188,64.7550725 84.1623188,67.6801932 L84.1623188,98.0845411 Z" id="Shape"></path>
                </g>
                <path d="M159.10628,555.005314 C145.119807,555.005314 133.451449,566.070048 133.451449,580.616184 C133.451449,594.607729 145.119807,606.277778 159.10628,606.277778 C173.145169,606.277778 184.813527,594.60942 184.813527,580.616184 C184.811836,566.070048 173.145169,555.005314 159.10628,555.005314 Z M155.13285,596.022947 L141.545411,583.000242 L147.439614,577.057005 C149.845652,580.076812 152.774155,583.000242 155.13285,585.357246 L172.348792,568.185266 L177.6343,573.565459 C170.558213,581.209662 162.868357,588.899517 155.13285,596.022947 Z" id="Shape" fill="#FFC713" fill-rule="nonzero"></path>
                <path d="M422.47029,626.408696 C408.485507,626.408696 396.815459,637.471739 396.815459,652.019565 C396.815459,666.00942 408.483816,677.679469 422.47029,677.679469 C436.51256,677.679469 448.177536,666.011111 448.177536,652.019565 C448.177536,637.471739 436.51256,626.408696 422.47029,626.408696 Z M418.498551,667.422947 L404.912802,654.400242 L410.803623,648.457005 C413.211353,651.478502 416.139855,654.400242 418.498551,656.757246 L435.714493,639.586957 L441,644.96715 C433.923913,652.613043 426.235749,660.301208 418.498551,667.422947 Z" id="Shape" fill="#FFC713" fill-rule="nonzero"></path>
                <g id="Group" transform="translate(275.603865, 0.000000)">
                    <rect id="Rectangle-path" fill="#213659" fill-rule="nonzero" transform="translate(78.750735, 65.760622) rotate(4.031323) translate(-78.750735, -65.760622) " x="30.4367652" y="4.99661159" width="96.6279388" height="121.52802"></rect>
                    <rect id="Rectangle-path" fill="#83C0E8" fill-rule="nonzero" transform="translate(70.920301, 67.706041) rotate(-7.048261) translate(-70.920301, -67.706041) " x="22.6088747" y="6.94394816" width="96.6228522" height="121.524185"></rect>
                    <rect id="Rectangle-path" fill="#213659" fill-rule="nonzero" transform="translate(56.904915, 80.095101) rotate(-7.048261) translate(-56.904915, -80.095101) " x="8.59264356" y="19.3330081" width="96.6245429" height="121.524185"></rect>
                    <rect id="Rectangle-path" fill="#FFFFFF" fill-rule="nonzero" transform="translate(69.855462, 41.174744) rotate(-7.048261) translate(-69.855462, -41.174744) " x="55.2719169" y="39.501749" width="29.1670894" height="3.34598979"></rect>
                    <rect id="Rectangle-path" fill="#FFFFFF" fill-rule="nonzero" transform="translate(67.601762, 47.322399) rotate(-7.048261) translate(-67.601762, -47.322399) " x="49.5132969" y="45.6485588" width="36.1769295" height="3.34768054"></rect>
                    <rect id="Rectangle-path" fill="#FFFFFF" fill-rule="nonzero" transform="translate(53.685469, 59.653418) rotate(-7.048261) translate(-53.685469, -59.653418) " x="20.4225428" y="57.6566448" width="66.5258516" height="3.99354618"></rect>
                    <rect id="Rectangle-path" fill="#FFFFFF" fill-rule="nonzero" transform="translate(54.752496, 66.533457) rotate(-7.048261) translate(-54.752496, -66.533457) " x="21.2748456" y="64.5366843" width="66.9553015" height="3.99354618"></rect>
                    <rect id="Rectangle-path" fill="#FFFFFF" fill-rule="nonzero" transform="translate(56.246650, 80.370781) rotate(-7.048261) translate(-56.246650, -80.370781) " x="22.9828784" y="78.3740079" width="66.5275423" height="3.99354618"></rect>
                    <rect id="Rectangle-path" fill="#FFFFFF" fill-rule="nonzero" transform="translate(57.312963, 87.253370) rotate(-7.048261) translate(-57.312963, -87.253370) " x="23.8344665" y="85.2565965" width="66.9569922" height="3.99354618"></rect>
                    <rect id="Rectangle-path" fill="#FFFFFF" fill-rule="nonzero" transform="translate(53.565976, 94.726896) rotate(-7.048261) translate(-53.565976, -94.726896) " x="24.7243551" y="92.7301234" width="57.6832408" height="3.99354618"></rect>
                    <rect id="Rectangle-path" fill="#FFFFFF" fill-rule="nonzero" transform="translate(59.021509, 101.062951) rotate(-7.048261) translate(-59.021509, -101.062951) " x="25.5430126" y="99.0661779" width="66.9569922" height="3.99354618"></rect>
                    <rect id="Rectangle-path" fill="#FFFFFF" fill-rule="nonzero" transform="translate(56.991411, 122.424680) rotate(-7.048261) translate(-56.991411, -122.424680) " x="28.148945" y="120.427907" width="57.6849316" height="3.99354618"></rect>
                    <rect id="Rectangle-path" fill="#FFFFFF" fill-rule="nonzero" transform="translate(62.443569, 128.770983) rotate(-7.048261) translate(-62.443569, -128.770983) " x="28.9650727" y="126.77421" width="66.9569922" height="3.99354618"></rect>
                    <rect id="Rectangle-path" fill="#FFFFFF" fill-rule="nonzero" transform="translate(49.855332, 74.150375) rotate(-7.048261) translate(-49.855332, -74.150375) " x="22.1710281" y="72.1536016" width="55.3686072" height="3.99354618"></rect>
                    <g transform="translate(69.323671, 103.140097)" id="Shape">
                        <path d="M0.478502415,7.56135266 C0.478502415,7.56135266 0.304347826,5.69806763 1.61980676,5.36666667 C2.93188406,5.03695652 6.74468599,4.23381643 6.74468599,4.23381643 C6.74468599,4.23381643 6.82246377,4.19154589 7.02874396,4.05797101 C8.00942029,3.10772947 9.66304348,1.5673913 11.0681159,1.40169082 C11.4705314,1.35434783 18.0681159,0.571497585 20.3524155,0.300966184 C20.839372,0.243478261 21.1301932,0.207971014 21.1301932,0.207971014 L22.7161836,0.0152173913 C22.7161836,0.0152173913 22.6874396,0.272222222 22.6012077,0.43115942 C22.5555556,0.514009662 22.3729469,0.708454106 22.210628,0.872463768 C22.7905797,1.49468599 23.7306763,2.81183575 23.7306763,2.81183575 C23.7306763,2.81183575 23.8727053,3.20917874 23.9200483,3.60144928 C23.9657005,3.99371981 24.1449275,5.50024155 24.1449275,5.50024155 L22.0871981,5.74371981 C21.8538647,5.77077295 21.6222222,5.69975845 21.4429952,5.54251208 C21.0642512,5.2178744 20.2983092,4.69033816 19.3243961,4.75120773 C17.9243961,4.83743961 16.5362319,6.28309179 17.0181159,8.05845411 L6.97463768,9.19637681 C6.97463768,9.19637681 6.74975845,6.36932367 4.15603865,6.64492754 C4.15603865,6.64492754 2.92173913,6.61618357 2.21666667,7.68140097 C2.15072464,7.78115942 2.04758454,7.84879227 1.92584541,7.86400966 L0.532608696,8.02801932 L0.478502415,7.56135266 Z" fill="#FFC713"></path>
                        <path d="M2.05942029,7.80144928 C2.74082126,6.57391304 4.15603865,6.63140097 4.15603865,6.63140097 C6.74975845,6.35410628 7.01014493,9.23357488 7.01014493,9.23357488 L7.01183575,9.23357488 L2.18792271,9.3468599 C2.0442029,9.36376812 1.91062802,9.27246377 1.87512077,9.1321256 L1.49130435,7.90120773 L2.05942029,7.80144928 Z" fill="#927400"></path>
                        <path d="M17.0181159,8.05676329 C16.5362319,6.28140097 17.9243961,4.83405797 19.3243961,4.74782609 C20.3118357,4.68695652 21.0862319,5.22801932 21.4582126,5.552657 C21.6256039,5.69975845 21.8471014,5.7673913 22.068599,5.74202899 L22.3408213,5.70821256 L22.5961353,7.39227053 L17.0181159,8.05676329 Z" fill="#927400"></path>
                        <path d="M0.503864734,6.86304348 C0.561352657,6.4673913 0.705072464,5.98550725 1.05507246,5.66594203 L2.36545894,5.51207729 C2.51594203,5.49347826 2.65458937,5.59830918 2.67149758,5.74710145 L2.67149758,5.74879227 C2.72898551,6.21545894 2.55652174,6.61956522 2.2910628,6.65169082 L0.503864734,6.86304348 Z" fill="#E55B57"></path>
                        <path d="M22.0516908,5.43599034 C21.8217391,5.46304348 21.6678744,5.68623188 21.7253623,5.91111111 L22.0550725,7.17415459 C22.0736715,7.33140097 22.2157005,7.44130435 22.371256,7.42270531 L24.613285,7.15555556 C24.7705314,7.1352657 24.878744,6.99492754 24.8635266,6.83937198 L24.707971,5.552657 C24.6809179,5.31594203 24.4644928,5.14516908 24.2277778,5.17391304 L22.0516908,5.43599034 Z" fill="#122644"></path>
                        <path d="M24.084058,4.98792271 L23.6275362,5.04202899 C23.4516908,5.06231884 23.2927536,4.93719807 23.2690821,4.75966184 L23.1676329,3.897343 C23.147343,3.72149758 23.2724638,3.56256039 23.4483092,3.54227053 L23.9065217,3.48816425 L24.084058,4.98792271 Z" fill="#E55B57"></path>
                        <path d="M13.4978261,3.42560386 C13.6466184,3.40869565 13.7497585,3.27342995 13.7328502,3.1263285 L13.5789855,1.82270531 C13.5620773,1.67222222 13.42343,1.56908213 13.2746377,1.58768116 C12.0707729,1.73478261 11.4485507,1.81256039 11.3183575,1.8294686 C10.007971,1.98333333 9.16425121,2.84903382 8.42028986,3.55410628 C8.23091787,3.73502415 8.38140097,4.05289855 8.64178744,4.02077295 L13.4978261,3.42560386 Z M18.5415459,2.68502415 L18.3521739,1.08043478 C18.342029,1.01280193 18.2794686,0.963768116 18.2118357,0.972222222 L14.2400966,1.46425121 C14.1724638,1.47270531 14.1251208,1.5352657 14.1335749,1.60289855 L14.3229469,3.20072464 C14.331401,3.26835749 14.3939614,3.3173913 14.4582126,3.3089372 L18.4316425,2.8236715 C18.5009662,2.81690821 18.55,2.75603865 18.5415459,2.68502415 Z M22.4625604,2.33164251 C22.5792271,2.31811594 22.636715,2.17777778 22.5589372,2.08647343 C22.192029,1.65700483 21.3398551,0.723671498 20.7768116,0.657729469 C20.7666667,0.656038647 20.7548309,0.656038647 20.7429952,0.657729469 L19.0285024,0.872463768 C18.9591787,0.880917874 18.9135266,0.94178744 18.9202899,1.00942029 L19.1096618,2.6173913 C19.1198068,2.68502415 19.1789855,2.73574879 19.2483092,2.72729469 L22.4625604,2.33164251 Z" fill="#83C1E9"></path>
                        <path d="M5.98381643,10.518599 C6.6821256,9.63429952 6.52487923,8.35434783 5.64565217,7.65772947 C4.76135266,6.96111111 3.47971014,7.11328502 2.78647343,7.99758454 C2.08816425,8.88019324 2.24202899,10.1618357 3.12463768,10.8584541 C4.00724638,11.5516908 5.28550725,11.4012077 5.98381643,10.518599 Z" fill="#122644"></path>
                        <path d="M4.13574879,9.6884058 C3.91256039,9.51256039 3.8736715,9.18961353 4.04951691,8.9647343 C4.22705314,8.74154589 4.55169082,8.702657 4.77487923,8.87681159 C4.99975845,9.05434783 5.03695652,9.37898551 4.86280193,9.60217391 C4.6852657,9.82705314 4.36062802,9.86594203 4.13574879,9.6884058 Z" fill="#E2C69C"></path>
                        <path d="M21.2012077,8.63671498 C21.8961353,7.75410628 21.7439614,6.47246377 20.8596618,5.77753623 C19.978744,5.08091787 18.6971014,5.23309179 18.0004831,6.1173913 C17.3055556,7 17.4577295,8.28164251 18.342029,8.97826087 C19.2229469,9.67149758 20.5028986,9.51932367 21.2012077,8.63671498 Z" fill="#122644"></path>
                        <path d="M19.3531401,7.80821256 C19.1299517,7.63236715 19.0927536,7.30772947 19.2669082,7.08454106 C19.4427536,6.86135266 19.7690821,6.82246377 19.9939614,6.99661836 C20.2171498,7.17246377 20.2543478,7.49879227 20.0768116,7.72198068 C19.902657,7.9468599 19.5780193,7.98405797 19.3531401,7.80821256 Z" fill="#E2C69C"></path>
                        <path d="M8.71618357,2.56497585 C8.93091787,2.40772947 9.16594203,2.23864734 9.43478261,2.06280193 C9.43478261,2.06280193 9.55144928,2.14396135 9.54806763,2.16763285 C9.54299517,2.18961353 7.09975845,4.25072464 7.09975845,4.25072464 L6.74637681,4.2321256 C6.74637681,4.2321256 6.82415459,4.18985507 7.03043478,4.05628019 C7.48019324,3.62173913 8.07198068,3.06038647 8.71618357,2.56497585 Z" fill="#83C1E9"></path>
                        <path d="M1.09565217,9.57512077 L1.72971014,9.497343 C2.05434783,9.45676329 2.28599034,9.15917874 2.24541063,8.83285024 L2.12536232,7.86570048 C2.10169082,7.68478261 1.9410628,7.55628019 1.75845411,7.57995169 L0.860628019,7.69154589 C0.535990338,7.73043478 0.302657005,8.02801932 0.343236715,8.35434783 L0.43115942,9.05772947 C0.47173913,9.38236715 0.769323671,9.61570048 1.09565217,9.57512077 Z" fill="#122644"></path>
                        <path d="M16.9927536,6.75652174 C16.8963768,7.15724638 16.9437198,7.67801932 17.0671498,8.13792271 L7.01014493,9.24371981 C7.01014493,9.24371981 6.95603865,8.65362319 6.65845411,8.03309179 L16.9927536,6.75652174 Z" fill="#122644"></path>
                    </g>
                    <g transform="translate(16.908213, 23.671498)" fill="#FFFFFF" fill-rule="nonzero" id="Shape">
                        <polygon points="1.03140097 9.32318841 2.19130435 9.18115942 3.00628019 15.7770531 1.84637681 15.9190821"></polygon>
                        <polygon points="4.88985507 8.84637681 5.96352657 8.71280193 10.0603865 12.836715 9.497343 8.27657005 10.6386473 8.13623188 11.4536232 14.7321256 10.4847826 14.8521739 6.26618357 10.6115942 6.84613527 15.3019324 5.70652174 15.4422705"></polygon>
                        <path d="M13.5198068,13.4995169 L14.113285,12.5847826 C14.813285,13.0548309 15.4845411,13.2864734 16.3028986,13.1850242 C17.0181159,13.0954106 17.4306763,12.7099034 17.3681159,12.2111111 L17.3664251,12.1908213 C17.3072464,11.7207729 17.0130435,11.4992754 15.7533816,11.3673913 C14.3077295,11.2 13.4640097,10.8838164 13.3152174,9.66811594 L13.3135266,9.64951691 C13.1731884,8.51835749 14.0202899,7.61884058 15.3289855,7.45821256 C16.2910628,7.33985507 17.0908213,7.53937198 17.8246377,7.99082126 L17.310628,8.94444444 C16.6630435,8.57584541 16.0391304,8.41352657 15.4371981,8.48623188 C14.7591787,8.57077295 14.4074879,8.96980676 14.4599034,9.402657 L14.463285,9.42125604 C14.5258454,9.93019324 14.8538647,10.1195652 16.1541063,10.2649758 C17.5913043,10.4323671 18.3775362,10.8415459 18.5144928,11.9338164 L18.5161836,11.9541063 C18.6683575,13.186715 17.7891304,14.0422705 16.402657,14.2130435 C15.3932367,14.3415459 14.3990338,14.1099034 13.5198068,13.4995169 Z"></path>
                        <path d="M20.5958937,10.7603865 L20.1275362,6.96280193 L21.2874396,6.82077295 L21.7507246,10.5710145 C21.9028986,11.7985507 22.6147343,12.3768116 23.6512077,12.2483092 C24.6775362,12.1214976 25.2338164,11.4231884 25.0833333,10.2074879 L24.6149758,6.40990338 L25.7731884,6.26618357 L26.2347826,10.007971 C26.4782609,11.976087 25.4891304,13.1055556 23.7644928,13.318599 C22.0483092,13.5282609 20.8326087,12.6727053 20.5958937,10.7603865 Z"></path>
                        <path d="M28.2958937,5.95338164 L31.2362319,5.58985507 C32.0647343,5.48671498 32.7461353,5.65410628 33.221256,6.01256039 C33.6135266,6.33043478 33.8722222,6.79541063 33.9432367,7.37028986 L33.9449275,7.38888889 C34.0785024,8.47439614 33.5086957,9.2031401 32.6176329,9.58188406 L34.7074879,11.8577295 L33.3396135,12.0268116 L31.4357488,9.92850242 L29.9850242,10.1077295 L30.2690821,12.4055556 L29.1091787,12.5475845 L28.2958937,5.95338164 Z M31.5557971,8.87004831 C32.3842995,8.76690821 32.8594203,8.26980676 32.77657,7.60024155 L32.7748792,7.58333333 C32.6886473,6.87657005 32.1306763,6.55362319 31.27343,6.65845411 L29.5859903,6.86811594 L29.8599034,9.08140097 L31.5557971,8.87004831 Z"></path>
                        <path d="M38.3731884,4.6615942 L39.4468599,4.52801932 L43.1700483,10.8111111 L41.9442029,10.963285 L41.0785024,9.45169082 L37.960628,9.83719807 L37.478744,11.5144928 L36.2917874,11.6615942 L38.3731884,4.6615942 Z M40.5289855,8.47777778 L39.0630435,5.98043478 L38.2582126,8.75845411 L40.5289855,8.47777778 Z"></path>
                        <polygon points="44.4178744 3.95990338 45.4915459 3.8263285 49.5900966 7.95024155 49.0270531 3.39009662 50.1666667 3.24975845 50.9816425 9.84565217 50.0111111 9.96570048 45.7958937 5.72342995 46.3758454 10.4137681 45.2345411 10.5541063"></polygon>
                        <path d="M52.9125604,6.27801932 L52.9091787,6.25772947 C52.6775362,4.38429952 53.8932367,2.67487923 55.8900966,2.42801932 C57.1057971,2.27753623 57.892029,2.61062802 58.5987923,3.13478261 L57.9596618,4.08333333 C57.371256,3.66062802 56.765942,3.40024155 56.0118357,3.49323671 C54.7504831,3.64879227 53.9642512,4.7968599 54.1231884,6.08864734 L54.1248792,6.10724638 C54.2838164,7.39903382 55.328744,8.34082126 56.5900966,8.1852657 C57.4,8.08550725 57.8768116,7.69154589 58.3772947,7.09299517 L59.2142512,7.7557971 C58.6157005,8.55724638 57.9173913,9.10338164 56.6830918,9.25555556 C54.7640097,9.49396135 53.1458937,8.17173913 52.9125604,6.27801932 Z"></path>
                        <polygon points="60.6801932 1.94951691 65.5700483 1.34589372 65.6968599 2.38236715 61.9669082 2.84396135 62.1782609 4.56014493 65.4855072 4.15096618 65.6140097 5.18743961 62.3067633 5.59661836 62.5248792 7.36690821 66.3038647 6.90024155 66.4323671 7.93671498 61.4934783 8.54710145"></polygon>
                    </g>
                </g>
                <path d="M420.322947,76.2644928 C406.338164,76.2644928 394.669807,87.3292271 394.669807,101.877053 C394.669807,115.866908 406.338164,127.536957 420.322947,127.536957 C434.365217,127.536957 446.030193,115.868599 446.030193,101.877053 C446.030193,87.3292271 434.365217,76.2644928 420.322947,76.2644928 Z M416.351208,117.282126 L402.765459,104.25942 L408.65628,98.3161836 C411.06401,101.33599 413.992512,104.25942 416.351208,106.616425 L433.56715,89.4444444 L438.852657,94.8246377 C431.77657,102.470531 424.088406,110.157005 416.351208,117.282126 Z" id="Shape" fill="#FFC713" fill-rule="nonzero"></path>
                <path d="M673.673913,186.298068 C659.624879,186.298068 647.904106,197.413527 647.904106,212.025604 C647.904106,226.081401 659.62657,237.802174 673.673913,237.802174 C687.778744,237.802174 699.497826,226.081401 699.497826,212.025604 C699.497826,197.411836 687.777053,186.298068 673.673913,186.298068 Z M688.652899,223.683816 L684.417391,227.917633 L674.16087,217.662802 L663.906039,227.917633 L659.668841,223.683816 L669.927053,213.428986 L659.668841,203.172464 L663.906039,198.938647 L674.16087,209.193478 L684.417391,198.938647 L688.652899,203.172464 L678.398068,213.428986 L688.652899,223.683816 Z" id="Shape" fill="#E55B57" fill-rule="nonzero"></path>
            </g>
        </g>
    </g>
</svg>